<?xml version="1.0" standalone="no"?>
<!DOCTYPE svg PUBLIC "-//W3C//DTD SVG 20010904//EN"
 "http://www.w3.org/TR/2001/REC-SVG-20010904/DTD/svg10.dtd">
<svg version="1.0" xmlns="http://www.w3.org/2000/svg"
 width="1106.000000pt" height="1106.000000pt" viewBox="0 0 1106.000000 1106.000000"
 preserveAspectRatio="xMidYMid meet">
<metadata>
Created by potrace 1.14, written by Peter Selinger 2001-2017
</metadata>
<g transform="translate(0.000000,1106.000000) scale(0.100000,-0.100000)"
fill="#000000" stroke="none">
<path d="M7220 8990 c0 -6 -40 -10 -100 -10 -60 0 -100 -4 -100 -10 0 -6 -30
-10 -70 -10 -40 0 -70 -4 -70 -10 0 -6 -37 -10 -90 -10 -53 0 -90 -4 -90 -10
0 -6 -30 -10 -70 -10 -40 0 -70 -4 -70 -10 0 -6 -37 -10 -90 -10 -53 0 -90 -4
-90 -10 0 -6 -30 -10 -70 -10 -40 0 -70 -4 -70 -10 0 -6 -43 -10 -110 -10 -67
0 -110 -4 -110 -10 0 -5 -22 -10 -50 -10 -27 0 -50 -4 -50 -10 0 -6 -33 -10
-80 -10 -47 0 -80 -4 -80 -10 0 -6 -33 -10 -80 -10 -47 0 -80 -4 -80 -10 0 -6
-37 -10 -90 -10 -53 0 -90 -4 -90 -10 0 -6 -27 -10 -60 -10 -33 0 -60 -4 -60
-10 0 -6 -33 -10 -80 -10 -47 0 -80 -4 -80 -10 0 -6 -33 -10 -80 -10 -47 0
-80 -4 -80 -10 0 -6 -33 -10 -80 -10 -47 0 -80 -4 -80 -10 0 -6 -33 -10 -80
-10 -47 0 -80 -4 -80 -10 0 -6 -33 -10 -80 -10 -47 0 -80 -4 -80 -10 0 -6 -30
-10 -70 -10 -40 0 -70 -4 -70 -10 0 -6 -33 -10 -80 -10 -47 0 -80 -4 -80 -10
0 -6 -33 -10 -80 -10 -47 0 -80 -4 -80 -10 0 -6 -33 -10 -80 -10 -47 0 -80 -4
-80 -10 0 -6 -33 -10 -80 -10 -47 0 -80 -4 -80 -10 0 -6 -43 -10 -110 -10 -67
0 -110 -4 -110 -10 0 -5 -18 -10 -40 -10 -22 0 -40 -4 -40 -10 0 -6 -43 -10
-110 -10 -67 0 -110 -4 -110 -10 0 -6 -33 -10 -80 -10 -47 0 -80 -4 -80 -10 0
-5 -22 -10 -50 -10 -27 0 -50 -4 -50 -10 0 -6 -40 -10 -100 -10 -60 0 -100 -4
-100 -10 0 -6 -33 -10 -80 -10 -47 0 -80 -4 -80 -10 0 -6 -30 -10 -70 -10 -40
0 -70 -4 -70 -10 0 -6 -30 -10 -70 -10 -40 0 -70 -4 -70 -10 0 -6 -30 -10 -70
-10 -40 0 -70 -4 -70 -10 0 -6 -33 -10 -80 -10 -47 0 -80 -4 -80 -10 0 -6 -33
-10 -80 -10 -47 0 -80 -4 -80 -10 0 -6 -27 -10 -60 -10 l-60 0 0 -410 0 -410
50 0 c28 0 50 5 50 10 0 6 30 10 70 10 40 0 70 4 70 10 0 6 33 10 80 10 47 0
80 4 80 10 0 6 33 10 80 10 47 0 80 4 80 10 0 6 33 10 80 10 47 0 80 4 80 10
0 6 33 10 80 10 47 0 80 4 80 10 0 6 30 10 70 10 40 0 70 4 70 10 0 6 33 10
80 10 47 0 80 4 80 10 0 6 33 10 80 10 47 0 80 4 80 10 0 6 30 10 70 10 40 0
70 4 70 10 0 6 33 10 80 10 47 0 80 4 80 10 0 6 33 10 80 10 47 0 80 4 80 10
0 6 37 10 90 10 l90 0 0 -356 c0 -373 -1 -384 -44 -384 -9 0 -16 -4 -16 -10 0
-6 -33 -10 -80 -10 -47 0 -80 -4 -80 -10 0 -6 -30 -10 -70 -10 -40 0 -70 -4
-70 -10 0 -6 -33 -10 -80 -10 -47 0 -80 -4 -80 -10 0 -6 -30 -10 -70 -10 -40
0 -70 -4 -70 -10 0 -6 -33 -10 -80 -10 -47 0 -80 -4 -80 -10 0 -6 -33 -10 -80
-10 -47 0 -80 -4 -80 -10 0 -6 -30 -10 -70 -10 -40 0 -70 -4 -70 -10 0 -6 -30
-10 -70 -10 -40 0 -70 -4 -70 -10 0 -6 -33 -10 -80 -10 -47 0 -80 -4 -80 -10
0 -6 -33 -10 -80 -10 -47 0 -80 -4 -80 -10 0 -6 -30 -10 -70 -10 -40 0 -70 -4
-70 -10 0 -6 -30 -10 -70 -10 -40 0 -70 -4 -70 -10 0 -6 -33 -10 -80 -10 -47
0 -80 -4 -80 -10 0 -6 -33 -10 -80 -10 -47 0 -80 -4 -80 -10 0 -6 -30 -10 -70
-10 -40 0 -70 -4 -70 -10 0 -6 -30 -10 -70 -10 -40 0 -70 -4 -70 -10 0 -6 -37
-10 -90 -10 -53 0 -90 -4 -90 -10 0 -6 -30 -10 -70 -10 -40 0 -70 -4 -70 -10
0 -6 -36 -10 -89 -10 -84 0 -89 -1 -92 -22 -2 -13 -3 -197 -1 -410 l3 -388 79
0 c47 0 80 4 80 10 0 6 30 10 70 10 40 0 70 4 70 10 0 6 33 10 80 10 47 0 80
4 80 10 0 6 30 10 70 10 40 0 70 4 70 10 0 6 33 10 80 10 47 0 80 4 80 10 0 6
30 10 70 10 40 0 70 4 70 10 0 6 33 10 80 10 47 0 80 4 80 10 0 6 30 10 70 10
40 0 70 4 70 10 0 6 30 10 70 10 40 0 70 4 70 10 0 6 33 10 80 10 47 0 80 4
80 10 0 6 30 10 70 10 40 0 70 4 70 10 0 6 30 10 70 10 40 0 70 4 70 10 0 6
33 10 80 10 47 0 80 4 80 10 0 6 30 10 70 10 40 0 70 4 70 10 0 6 33 10 80 10
47 0 80 4 80 10 0 6 30 10 70 10 40 0 70 4 70 10 0 6 43 10 110 10 67 0 110 4
110 10 0 6 18 10 40 10 22 0 40 5 40 10 0 6 43 10 110 10 67 0 110 4 110 10 0
6 14 10 30 10 l30 0 0 -380 0 -380 -80 0 c-47 0 -80 -4 -80 -10 0 -5 -18 -10
-40 -10 -22 0 -40 -4 -40 -10 0 -6 -40 -10 -100 -10 -60 0 -100 -4 -100 -10 0
-6 -30 -10 -70 -10 -40 0 -70 -4 -70 -10 0 -6 -33 -10 -80 -10 -47 0 -80 -4
-80 -10 0 -6 -30 -10 -70 -10 -40 0 -70 -4 -70 -10 0 -6 -33 -10 -80 -10 -47
0 -80 -4 -80 -10 0 -6 -30 -10 -70 -10 -40 0 -70 -4 -70 -10 0 -5 -18 -10 -40
-10 -22 0 -40 -4 -40 -10 0 -6 -40 -10 -100 -10 -60 0 -100 -4 -100 -10 0 -6
-33 -10 -80 -10 -47 0 -80 -4 -80 -10 0 -6 -27 -10 -60 -10 -33 0 -60 -4 -60
-10 0 -6 -27 -10 -60 -10 -33 0 -60 -4 -60 -10 0 -6 -30 -10 -70 -10 -40 0
-70 -4 -70 -10 0 -6 -33 -10 -80 -10 -47 0 -80 -4 -80 -10 0 -5 -13 -10 -30
-10 l-30 0 0 -400 0 -400 100 0 c60 0 100 4 100 10 0 6 30 10 70 10 40 0 70 4
70 10 0 6 30 10 70 10 40 0 70 4 70 10 0 6 33 10 80 10 47 0 80 4 80 10 0 6
30 10 70 10 40 0 70 4 70 10 0 6 33 10 80 10 47 0 80 4 80 10 0 6 23 10 50 10
28 0 50 5 50 10 0 6 37 10 90 10 53 0 90 4 90 10 0 6 30 10 70 10 40 0 70 4
70 10 0 6 30 10 70 10 40 0 70 4 70 10 0 6 30 10 70 10 40 0 70 4 70 10 0 6
30 10 70 10 40 0 70 4 70 10 0 6 30 10 70 10 40 0 70 4 70 10 0 6 33 10 80 10
47 0 80 4 80 10 0 6 27 10 60 10 33 0 60 4 60 10 0 6 5 10 10 10 6 0 10 -137
10 -390 l0 -390 -90 0 c-53 0 -90 -4 -90 -10 0 -6 -30 -10 -70 -10 -40 0 -70
-4 -70 -10 0 -6 -30 -10 -70 -10 -40 0 -70 -4 -70 -10 0 -6 -30 -10 -70 -10
-40 0 -70 -4 -70 -10 0 -6 -30 -10 -70 -10 -40 0 -70 -4 -70 -10 0 -6 -30 -10
-70 -10 -40 0 -70 -4 -70 -10 0 -6 -30 -10 -70 -10 -40 0 -70 -4 -70 -10 0 -6
-30 -10 -70 -10 -40 0 -70 -4 -70 -10 0 -6 -30 -10 -70 -10 -40 0 -70 -4 -70
-10 0 -6 -30 -10 -70 -10 -40 0 -70 -4 -70 -10 0 -6 -33 -10 -80 -10 -47 0
-80 -4 -80 -10 0 -6 -27 -10 -60 -10 -33 0 -60 -4 -60 -10 0 -6 -30 -10 -70
-10 -40 0 -70 -4 -70 -10 0 -6 -33 -10 -80 -10 -47 0 -80 -4 -80 -10 0 -6 -30
-10 -70 -10 -40 0 -70 -4 -70 -10 0 -6 -30 -10 -70 -10 -40 0 -70 -4 -70 -10
0 -6 -33 -10 -80 -10 -47 0 -80 -4 -80 -10 0 -6 -27 -10 -60 -10 -33 0 -60 -4
-60 -10 0 -5 -9 -10 -20 -10 -20 0 -20 -7 -20 -400 l0 -400 80 0 c47 0 80 4
80 10 0 6 30 10 70 10 40 0 70 4 70 10 0 6 30 10 70 10 40 0 70 4 70 10 0 6
33 10 80 10 47 0 80 4 80 10 0 6 30 10 70 10 40 0 70 4 70 10 0 6 27 10 60 10
33 0 60 4 60 10 0 6 30 10 70 10 40 0 70 4 70 10 0 6 30 10 70 10 40 0 70 4
70 10 0 6 30 10 70 10 40 0 70 4 70 10 0 6 33 10 80 10 47 0 80 4 80 10 0 6
27 10 60 10 33 0 60 4 60 10 0 6 30 10 70 10 40 0 70 4 70 10 0 6 30 10 70 10
40 0 70 4 70 10 0 6 30 10 70 10 40 0 70 4 70 10 0 6 30 10 70 10 40 0 70 4
70 10 0 6 30 10 70 10 40 0 70 4 70 10 0 6 30 10 70 10 40 0 70 4 70 10 0 6
27 10 60 10 33 0 60 4 60 10 0 20 51 10 75 -15 l25 -24 0 -456 0 -455 100 0
c60 0 100 4 100 10 0 6 27 10 60 10 33 0 60 4 60 10 0 6 30 10 70 10 40 0 70
4 70 10 0 6 33 10 80 10 47 0 80 4 80 10 0 6 27 10 60 10 33 0 60 4 60 10 0 6
30 10 70 10 40 0 70 4 70 10 0 6 30 10 70 10 40 0 70 4 70 10 0 6 30 10 70 10
40 0 70 4 70 10 0 6 30 10 70 10 40 0 70 4 70 10 0 6 27 10 60 10 33 0 60 4
60 10 0 6 30 10 70 10 40 0 70 4 70 10 0 6 30 10 70 10 40 0 70 4 70 10 0 6
27 10 60 10 33 0 60 4 60 10 0 6 33 10 80 10 47 0 80 4 80 10 0 6 27 10 60 10
33 0 60 4 60 10 0 6 30 10 70 10 40 0 70 4 70 10 0 6 37 10 90 10 53 0 90 4
90 10 0 6 18 10 40 10 22 0 40 5 40 10 0 6 33 10 80 10 47 0 80 4 80 10 0 6
27 10 60 10 33 0 60 4 60 10 0 6 30 10 70 10 40 0 70 4 70 10 0 6 30 10 70 10
40 0 70 4 70 10 0 6 27 10 60 10 33 0 60 4 60 10 0 6 30 10 70 10 40 0 70 4
70 10 0 6 30 10 70 10 40 0 70 4 70 10 0 6 30 10 70 10 40 0 70 4 70 10 0 6
27 10 60 10 33 0 60 4 60 10 0 6 33 10 80 10 47 0 80 4 80 10 0 6 27 10 60 10
33 0 60 4 60 10 0 6 30 10 70 10 40 0 70 4 70 10 0 6 30 10 70 10 40 0 70 4
70 10 0 6 30 10 70 10 40 0 70 4 70 10 0 6 27 10 60 10 33 0 60 4 60 10 0 6
30 10 70 10 40 0 70 4 70 10 0 6 30 10 70 10 40 0 70 4 70 10 0 6 30 10 70 10
40 0 70 4 70 10 0 6 30 10 70 10 40 0 70 4 70 10 0 6 27 10 60 10 33 0 60 4
60 10 0 6 37 10 90 10 53 0 90 4 90 10 0 6 23 10 50 10 28 0 50 5 50 10 0 6
30 10 70 10 40 0 70 4 70 10 0 6 27 10 60 10 33 0 60 4 60 10 0 6 30 10 70 10
40 0 70 4 70 10 0 6 30 10 70 10 40 0 70 4 70 10 0 6 27 10 60 10 33 0 60 4
60 10 0 6 30 10 70 10 40 0 70 4 70 10 0 6 30 10 70 10 40 0 70 4 70 10 0 6
27 10 60 10 33 0 60 4 60 10 0 6 30 10 70 10 40 0 70 4 70 10 0 6 40 10 100
10 60 0 100 4 100 10 0 6 18 10 40 10 22 0 40 5 40 10 0 6 30 10 70 10 40 0
70 4 70 10 0 6 30 10 70 10 40 0 70 4 70 10 0 6 23 10 50 10 l50 0 0 40 c0 22
-4 40 -10 40 -5 0 -10 7 -10 16 0 8 -22 37 -50 64 -27 27 -50 54 -50 60 0 6
-27 38 -60 70 -33 32 -60 64 -60 70 0 6 -22 33 -50 60 -27 27 -50 54 -50 60 0
7 -13 25 -30 40 -16 15 -30 33 -30 40 0 6 -18 29 -40 50 -22 21 -40 44 -40 50
0 6 -22 33 -50 60 -27 27 -50 54 -50 60 0 6 -18 29 -40 50 -22 21 -40 44 -40
50 0 6 -27 38 -60 70 -33 32 -60 64 -60 70 0 7 -13 25 -30 40 -16 15 -30 33
-30 40 0 6 -27 38 -60 70 -33 32 -60 64 -60 70 0 6 -22 33 -50 60 -27 27 -50
54 -50 60 0 6 -18 29 -40 50 -22 21 -40 44 -40 50 0 6 -18 29 -40 50 -22 21
-40 44 -40 50 0 6 -22 33 -50 60 -27 27 -50 54 -50 60 0 7 -13 25 -30 40 -16
15 -30 33 -30 40 0 6 -22 33 -50 60 -27 27 -50 54 -50 60 0 6 -18 29 -40 50
-22 21 -40 44 -40 50 0 6 -18 29 -40 50 -22 21 -40 46 -40 54 0 9 -4 16 -10
16 -18 0 -11 35 10 50 11 8 20 21 20 28 0 8 14 27 30 42 17 15 30 35 30 44 0
9 5 16 10 16 6 0 10 9 10 20 0 11 5 20 10 20 6 0 10 8 10 18 0 10 9 24 20 32
11 8 20 22 20 32 0 10 5 18 10 18 6 0 10 9 10 20 0 11 5 20 10 20 6 0 10 9 10
20 0 11 5 20 10 20 6 0 10 13 10 28 0 16 8 34 20 42 12 8 20 26 20 42 0 15 5
28 10 28 6 0 10 14 10 30 0 17 5 30 10 30 6 0 10 9 10 20 0 11 5 20 10 20 6 0
10 14 10 30 0 17 5 30 10 30 6 0 10 14 10 30 0 17 5 30 10 30 6 0 10 18 10 40
0 22 5 40 10 40 6 0 10 18 10 40 0 22 5 40 10 40 6 0 10 18 10 40 0 22 5 40
10 40 6 0 10 23 10 50 0 28 5 50 10 50 6 0 10 30 10 70 0 40 4 70 10 70 6 0
10 50 10 130 0 80 4 130 10 130 6 0 10 77 10 210 0 133 -4 210 -10 210 -6 0
-10 37 -10 90 0 53 -4 90 -10 90 -6 0 -10 30 -10 70 0 40 -4 70 -10 70 -5 0
-10 23 -10 50 0 28 -4 50 -10 50 -5 0 -10 18 -10 40 0 22 -4 40 -10 40 -5 0
-10 14 -10 30 0 17 -4 30 -10 30 -5 0 -10 18 -10 40 0 22 -4 40 -10 40 -5 0
-10 9 -10 20 0 11 -4 20 -10 20 -5 0 -10 14 -10 30 0 17 -4 30 -10 30 -5 0
-10 14 -10 30 0 17 -4 30 -10 30 -5 0 -10 9 -10 20 0 11 -4 20 -10 20 -5 0
-10 9 -10 20 0 11 -4 20 -10 20 -5 0 -10 9 -10 20 0 11 -4 20 -10 20 -5 0 -10
9 -10 20 0 11 -4 20 -10 20 -5 0 -10 8 -10 18 0 10 -9 24 -20 32 -11 8 -20 21
-20 30 0 9 -9 22 -20 30 -11 8 -20 21 -20 28 0 8 -14 27 -30 42 -16 15 -30 33
-30 39 0 15 -246 261 -261 261 -6 0 -24 14 -39 30 -15 17 -34 30 -42 30 -7 0
-20 9 -28 20 -8 11 -22 20 -32 20 -10 0 -18 5 -18 10 0 6 -8 10 -18 10 -10 0
-24 9 -32 20 -8 11 -22 20 -32 20 -10 0 -18 5 -18 10 0 6 -9 10 -20 10 -11 0
-20 5 -20 10 0 6 -9 10 -20 10 -11 0 -20 5 -20 10 0 6 -9 10 -20 10 -11 0 -20
5 -20 10 0 6 -13 10 -30 10 -16 0 -30 5 -30 10 0 6 -13 10 -30 10 -16 0 -30 5
-30 10 0 6 -9 10 -20 10 -11 0 -20 5 -20 10 0 6 -18 10 -40 10 -22 0 -40 5
-40 10 0 6 -13 10 -30 10 -16 0 -30 5 -30 10 0 6 -18 10 -40 10 -22 0 -40 5
-40 10 0 6 -22 10 -50 10 -27 0 -50 5 -50 10 0 6 -27 10 -60 10 -33 0 -60 4
-60 10 0 6 -22 10 -50 10 -27 0 -50 5 -50 10 0 7 -160 10 -460 10 -300 0 -460
-3 -460 -10z m0 -1020 c0 -6 47 -10 120 -10 73 0 120 -4 120 -10 0 -6 27 -10
60 -10 33 0 60 -4 60 -10 0 -5 14 -10 30 -10 17 0 30 -4 30 -10 0 -5 14 -10
30 -10 17 0 30 -4 30 -10 0 -5 14 -10 30 -10 17 0 30 -4 30 -10 0 -5 14 -10
30 -10 17 0 30 -4 30 -10 0 -5 9 -10 20 -10 11 0 20 -4 20 -10 0 -5 7 -10 16
-10 9 0 29 -13 44 -30 15 -16 35 -30 44 -30 9 0 16 -4 16 -10 0 -5 7 -10 15
-10 19 0 185 -164 185 -183 0 -7 9 -19 20 -27 11 -8 20 -21 20 -30 0 -9 9 -22
20 -30 11 -8 20 -22 20 -32 0 -10 5 -18 10 -18 6 0 10 -9 10 -20 0 -11 5 -20
10 -20 6 0 10 -13 10 -30 0 -16 5 -30 10 -30 6 0 10 -9 10 -20 0 -11 5 -20 10
-20 6 0 10 -13 10 -30 0 -16 5 -30 10 -30 6 0 10 -18 10 -40 0 -22 5 -40 10
-40 6 0 10 -18 10 -40 0 -22 5 -40 10 -40 6 0 10 -33 10 -80 0 -47 4 -80 10
-80 6 0 10 -80 10 -220 0 -140 -4 -220 -10 -220 -6 0 -10 -27 -10 -60 0 -33
-4 -60 -10 -60 -5 0 -10 -18 -10 -40 0 -22 -4 -40 -10 -40 -5 0 -10 -18 -10
-40 0 -22 -4 -40 -10 -40 -5 0 -10 -18 -10 -40 0 -22 -4 -40 -10 -40 -5 0 -10
-9 -10 -20 0 -11 -4 -20 -10 -20 -5 0 -10 -9 -10 -20 0 -11 -4 -20 -10 -20 -5
0 -10 -13 -10 -30 0 -16 -4 -30 -10 -30 -5 0 -10 -13 -10 -28 0 -16 -8 -34
-20 -42 -11 -8 -20 -22 -20 -32 0 -10 -4 -18 -10 -18 -5 0 -10 -9 -10 -20 0
-11 -4 -20 -10 -20 -5 0 -10 -8 -10 -18 0 -10 -9 -24 -20 -32 -11 -8 -20 -21
-20 -30 0 -9 -9 -22 -20 -30 -11 -8 -20 -20 -20 -27 0 -16 -245 -263 -261
-263 -6 0 -28 -18 -49 -40 -21 -22 -45 -40 -52 -40 -7 0 -20 -9 -28 -20 -8
-11 -22 -20 -32 -20 -10 0 -18 -4 -18 -10 0 -5 -8 -10 -18 -10 -10 0 -24 -9
-32 -20 -8 -11 -20 -20 -28 -20 -23 0 -42 -27 -42 -60 0 -24 11 -42 50 -80 28
-27 50 -54 50 -60 0 -6 18 -29 40 -50 22 -21 40 -44 40 -50 0 -6 18 -29 40
-50 22 -21 40 -44 40 -50 0 -6 23 -33 50 -60 28 -27 50 -54 50 -60 0 -6 18
-29 40 -50 22 -21 40 -44 40 -50 0 -6 18 -29 40 -50 22 -21 40 -44 40 -50 0
-6 23 -33 50 -60 28 -27 50 -54 50 -60 0 -6 18 -29 40 -50 22 -21 40 -44 40
-50 0 -6 18 -29 40 -50 22 -21 40 -44 40 -50 0 -6 18 -29 40 -50 22 -21 40
-44 40 -50 0 -6 18 -29 40 -50 22 -21 40 -44 40 -50 0 -6 23 -33 50 -60 28
-27 50 -54 50 -60 0 -6 18 -29 40 -50 22 -21 40 -46 40 -54 0 -9 5 -16 10 -16
6 0 10 -4 10 -10 0 -6 -30 -10 -70 -10 -40 0 -70 -4 -70 -10 0 -6 -27 -10 -60
-10 -33 0 -60 -4 -60 -10 0 -6 -33 -10 -80 -10 -47 0 -80 -4 -80 -10 0 -6 -30
-10 -70 -10 -40 0 -70 -4 -70 -10 0 -6 -32 -10 -75 -10 l-76 0 -44 45 c-25 24
-45 49 -45 56 0 6 -18 28 -40 49 -22 21 -40 44 -40 50 0 6 -18 29 -40 50 -22
21 -40 44 -40 50 0 6 -18 29 -40 50 -22 21 -40 44 -40 50 0 6 -18 29 -40 50
-22 21 -40 45 -40 52 0 7 -9 20 -20 28 -11 8 -20 20 -20 28 0 7 -22 35 -50 62
-27 27 -50 54 -50 60 0 6 -18 29 -40 50 -22 21 -40 44 -40 50 0 7 -13 25 -30
40 -16 15 -30 33 -30 40 0 6 -18 29 -40 50 -22 21 -40 44 -40 50 0 6 -18 29
-40 50 -22 21 -40 44 -40 50 0 6 -18 29 -40 50 -22 21 -40 44 -40 50 0 6 -18
29 -40 50 -22 21 -40 46 -40 54 0 13 -15 16 -90 16 -53 0 -90 -4 -90 -10 0 -6
-33 -10 -80 -10 -47 0 -80 -4 -80 -10 0 -6 -27 -10 -60 -10 -33 0 -60 -4 -60
-10 0 -6 -33 -10 -80 -10 -47 0 -80 -4 -80 -10 0 -6 -30 -10 -70 -10 -40 0
-70 -4 -70 -10 0 -6 -27 -10 -60 -10 -33 0 -60 -4 -60 -10 0 -6 -30 -10 -70
-10 -40 0 -70 -4 -70 -10 0 -6 -27 -10 -60 -10 -33 0 -60 -4 -60 -10 0 -6 -30
-10 -70 -10 l-70 0 0 -715 0 -716 -25 -24 c-21 -22 -33 -25 -90 -25 -37 0 -65
-4 -65 -10 0 -6 -40 -10 -100 -10 -60 0 -100 -4 -100 -10 0 -6 -30 -10 -70
-10 l-70 0 0 2235 0 2236 35 34 c29 30 41 35 80 35 25 0 45 5 45 10 0 6 37 10
90 10 53 0 90 4 90 10 0 6 30 10 70 10 40 0 70 4 70 10 0 6 33 10 80 10 47 0
80 4 80 10 0 6 30 10 70 10 40 0 70 4 70 10 0 6 33 10 80 10 47 0 80 4 80 10
0 6 30 10 70 10 40 0 70 4 70 10 0 6 33 10 80 10 47 0 80 4 80 10 0 6 33 10
80 10 47 0 80 4 80 10 0 6 33 10 80 10 47 0 80 4 80 10 0 6 90 10 250 10 160
0 250 -4 250 -10z"/>
<path d="M7080 7170 c0 -6 -40 -10 -100 -10 -60 0 -100 -4 -100 -10 0 -6 -27
-10 -60 -10 -33 0 -60 -4 -60 -10 0 -6 -30 -10 -70 -10 -40 0 -70 -4 -70 -10
0 -6 -40 -10 -100 -10 -60 0 -100 -4 -100 -10 0 -6 -30 -10 -70 -10 -40 0 -70
-4 -70 -10 0 -6 -33 -10 -80 -10 -47 0 -80 -4 -80 -10 0 -5 -22 -10 -50 -10
-27 0 -50 -4 -50 -10 0 -6 -40 -10 -100 -10 -60 0 -100 -4 -100 -10 0 -6 -30
-10 -70 -10 l-70 0 0 -690 0 -690 70 0 c40 0 70 4 70 10 0 6 30 10 70 10 40 0
70 4 70 10 0 6 33 10 80 10 47 0 80 4 80 10 0 6 30 10 70 10 40 0 70 4 70 10
0 6 33 10 80 10 47 0 80 4 80 10 0 6 30 10 70 10 40 0 70 4 70 10 0 6 23 10
50 10 28 0 50 5 50 10 0 6 23 10 50 10 28 0 50 5 50 10 0 6 47 10 120 10 73 0
120 4 120 10 0 6 27 10 60 10 33 0 60 4 60 10 0 6 27 10 60 10 33 0 60 4 60
10 0 6 14 10 30 10 17 0 30 5 30 10 0 6 14 10 30 10 17 0 30 5 30 10 0 6 18
10 40 10 22 0 40 5 40 10 0 6 9 10 20 10 11 0 20 5 20 10 0 6 9 10 20 10 11 0
20 5 20 10 0 6 9 10 20 10 11 0 20 5 20 10 0 6 9 10 20 10 11 0 20 5 20 10 0
6 7 10 15 10 20 0 145 125 145 145 0 8 5 15 10 15 6 0 10 9 10 20 0 11 5 20
10 20 6 0 10 9 10 20 0 11 5 20 10 20 6 0 10 9 10 20 0 11 5 20 10 20 6 0 10
14 10 30 0 17 5 30 10 30 6 0 10 18 10 40 0 22 5 40 10 40 6 0 10 83 10 230 0
147 -4 230 -10 230 -5 0 -10 9 -10 20 0 11 -4 20 -10 20 -5 0 -10 17 -10 38 0
26 -6 42 -20 52 -11 8 -20 20 -20 27 0 25 -88 103 -115 103 -14 0 -25 5 -25
10 0 6 -9 10 -20 10 -11 0 -20 5 -20 10 0 6 -22 10 -50 10 -27 0 -50 5 -50 10
0 6 -80 10 -220 10 -140 0 -220 -4 -220 -10z"/>
<path d="M1360 8250 c0 -6 -27 -10 -60 -10 -33 0 -60 -4 -60 -10 0 -6 -40 -10
-100 -10 -60 0 -100 -4 -100 -10 0 -5 -13 -10 -30 -10 l-30 0 0 -400 0 -400
110 0 c67 0 110 4 110 10 0 6 30 10 70 10 40 0 70 4 70 10 0 6 33 10 80 10
l80 0 0 410 0 410 -70 0 c-40 0 -70 -4 -70 -10z"/>
<path d="M340 6530 c0 -6 -33 -10 -80 -10 -47 0 -80 -4 -80 -10 0 -6 -30 -10
-70 -10 -40 0 -70 -4 -70 -10 0 -5 -9 -10 -20 -10 -20 0 -20 -7 -20 -400 l0
-400 90 0 c53 0 90 4 90 10 0 6 30 10 70 10 40 0 70 4 70 10 0 6 33 10 80 10
47 0 80 4 80 10 0 6 9 10 20 10 20 0 20 7 20 400 l0 400 -90 0 c-53 0 -90 -4
-90 -10z"/>
<path d="M1100 5050 c0 -6 -30 -10 -70 -10 -40 0 -70 -4 -70 -10 0 -6 -33 -10
-80 -10 -47 0 -80 -4 -80 -10 0 -5 -13 -10 -30 -10 l-30 0 0 -400 0 -400 110
0 c67 0 110 4 110 10 0 6 30 10 70 10 40 0 70 4 70 10 0 6 30 10 70 10 l70 0
0 410 0 410 -70 0 c-40 0 -70 -4 -70 -10z"/>
<path d="M700 3410 c0 -6 -30 -10 -70 -10 -40 0 -70 -4 -70 -10 0 -6 -30 -10
-70 -10 -40 0 -70 -4 -70 -10 0 -5 -18 -10 -40 -10 l-40 0 0 -400 0 -400 110
0 c67 0 110 4 110 10 0 6 33 10 80 10 47 0 80 4 80 10 0 6 27 10 60 10 l60 0
0 410 0 410 -70 0 c-40 0 -70 -4 -70 -10z"/>
</g>
</svg>
